# xmcd
#
# Track frame offsets:
#	150
#	14114
#	26941
#	45269
#	57674
#	68543
#	83658
#	96657
#	113555
#	130537
#	148186
#	163844
#
# Disc length: 2426 seconds
#
# Revision: 0
# Processed by: cddbd v1.5.1PL0 Copyright (c) Steve Scherf et al.
# Submitted via: EasyCDDAExtractor 8.0.1.1
#
DISCID=a609780c
DTITLE=The Wrights - Down This Road
DYEAR=2005
DGENRE=Country
TTITLE0=Down This Road
TTITLE1=Hard Time
TTITLE2=Knew All Along
TTITLE3=On The Rocks
TTITLE4=Hole In My Pocket
TTITLE5=Butterflies
TTITLE6=You're In Georga Now
TTITLE7=Roller Coaster
TTITLE8=Do You Love Me
TTITLE9=Leave a Light On
TTITLE10=Waiting On Something Good
TTITLE11=You Got the Thorns
EXTD=
EXTT0=
EXTT1=
EXTT2=
EXTT3=
EXTT4=
EXTT5=
EXTT6=
EXTT7=
EXTT8=
EXTT9=
EXTT10=
EXTT11=
PLAYORDER=
